<svg width="131" height="24" viewBox="0 0 131 24" fill="none" xmlns="http://www.w3.org/2000/svg">
<path d="M17.424 17.736C17.648 18.2773 17.9653 18.8 18.376 19.304C18.7867 19.7893 19.1413 20.1533 19.44 20.396C18.992 21.3293 18.4413 22.0107 17.788 22.44C17.2467 22.7947 16.668 23 16.052 23.056C15.716 23.0933 15.3333 23.0653 14.904 22.972C14.4747 22.8787 14.0267 22.6173 13.56 22.188C13.112 21.74 12.664 21.0307 12.216 20.06C12.0853 19.7427 11.796 19.5187 11.348 19.388C10.9 19.2573 10.424 19.1827 9.92 19.164C9.416 19.1267 9.00533 19.108 8.688 19.108C8.37067 19.108 7.97867 19.1173 7.512 19.136C7.064 19.1547 6.65333 19.2293 6.28 19.36C5.90667 19.4907 5.68267 19.724 5.608 20.06C5.53333 20.3587 5.524 20.6667 5.58 20.984C5.636 21.3013 5.75733 21.5067 5.944 21.6C5.62667 21.8987 5.30933 22.16 4.992 22.384C4.69333 22.608 4.38533 22.7853 4.068 22.916C3.676 23.084 3.26533 23.168 2.836 23.168C2.42533 23.168 1.95867 23.0747 1.436 22.888C1.19333 22.7947 0.941333 22.6267 0.68 22.384C0.418667 22.1413 0.241333 21.8053 0.148 21.376C0.0546667 20.9467 0.129333 20.4053 0.372 19.752C0.390667 19.696 0.484 19.3973 0.652 18.856C0.82 18.3147 1.03467 17.6053 1.296 16.728C1.576 15.832 1.87467 14.8427 2.192 13.76C2.528 12.6773 2.864 11.5667 3.2 10.428C3.55467 9.27067 3.89067 8.16 4.208 7.096C4.544 6.032 4.84267 5.07067 5.104 4.212C5.36533 3.35333 5.57067 2.672 5.72 2.168C5.86933 1.664 5.944 1.412 5.944 1.412C6.112 1.31867 6.42 1.20667 6.868 1.076C7.33467 0.926666 7.82933 0.842666 8.352 0.823998C8.93067 0.786666 9.49067 0.861332 10.032 1.048C10.592 1.23467 11.0213 1.608 11.32 2.168C11.4507 2.392 11.6467 2.82133 11.908 3.456C12.1693 4.09067 12.4773 4.856 12.832 5.752C13.1867 6.648 13.56 7.60933 13.952 8.636C14.344 9.644 14.7267 10.652 15.1 11.66C15.492 12.6493 15.8467 13.5733 16.164 14.432C16.4813 15.2907 16.752 16.0187 16.976 16.616C17.2 17.1947 17.3493 17.568 17.424 17.736ZM8.604 14.124C9.08933 14.0867 9.36933 13.9467 9.444 13.704C9.53733 13.4613 9.59333 13.1813 9.612 12.864C9.612 12.6587 9.57467 12.4067 9.5 12.108C9.444 11.8093 9.35067 11.548 9.22 11.324C9.108 11.0813 8.95867 10.96 8.772 10.96C8.51067 10.96 8.22133 11.1467 7.904 11.52C7.60533 11.8747 7.43733 12.2387 7.4 12.612C7.344 12.9667 7.372 13.312 7.484 13.648C7.61467 13.984 7.988 14.1427 8.604 14.124ZM30.6269 0.571998C31.7282 0.571998 32.7829 0.767999 33.7909 1.16C34.8175 1.53333 35.6762 2.03733 36.3669 2.672C37.0762 3.30667 37.4962 3.988 37.6269 4.716C37.7202 5.20133 37.6549 5.74267 37.4309 6.34C37.2069 6.91867 36.8522 7.432 36.3669 7.88C35.8815 8.30933 35.2935 8.54267 34.6029 8.58C34.3602 8.58 34.0522 8.552 33.6789 8.496C33.3055 8.44 32.9415 8.328 32.5869 8.16C32.2509 7.992 31.9802 7.74933 31.7749 7.432C32.0549 7.28267 32.2415 7.124 32.3349 6.956C32.4282 6.788 32.4562 6.62 32.4189 6.452C32.3442 6.07867 32.1202 5.77067 31.7469 5.528C31.3922 5.28533 30.9535 5.136 30.4309 5.08C30.1322 5.04267 29.7869 5.052 29.3949 5.108C29.0029 5.14533 28.6389 5.276 28.3029 5.5C27.9855 5.70533 27.7615 6.05067 27.6309 6.536C27.5562 6.816 27.5655 7.124 27.6589 7.46C27.7709 7.77733 28.0322 8.08533 28.4429 8.384C28.8535 8.664 29.4789 8.90667 30.3189 9.112C31.6069 9.41067 32.8015 9.73733 33.9029 10.092C35.0229 10.4467 36.0029 10.8853 36.8429 11.408C37.6829 11.9307 38.3269 12.584 38.7749 13.368C39.2415 14.1333 39.4562 15.0947 39.4189 16.252C39.4002 17.0173 39.1949 17.82 38.8029 18.66C38.4109 19.5 37.8415 20.284 37.0949 21.012C36.3482 21.7213 35.4335 22.3 34.3509 22.748C33.2682 23.196 32.0362 23.42 30.6549 23.42C29.7775 23.42 28.8722 23.3453 27.9389 23.196C27.0055 23.0467 26.1189 22.8133 25.2789 22.496C24.4575 22.1787 23.7295 21.7587 23.0949 21.236C22.5349 20.7507 22.1335 20.144 21.8909 19.416C21.6669 18.688 21.6202 17.96 21.7509 17.232C21.8815 16.4853 22.2082 15.8507 22.7309 15.328C23.2722 14.8053 24.0189 14.516 24.9709 14.46C24.7842 15.02 24.8869 15.5707 25.2789 16.112C25.6895 16.6347 26.2962 17.0827 27.0989 17.456C27.9015 17.8107 28.7789 18.0253 29.7309 18.1C30.7202 18.1747 31.5789 18.1373 32.3069 17.988C33.0535 17.8387 33.4642 17.5307 33.5389 17.064C33.6322 16.504 33.5202 16.056 33.2029 15.72C32.8855 15.384 32.4469 15.132 31.8869 14.964C31.3269 14.7773 30.7202 14.628 30.0669 14.516C29.4135 14.3853 28.8069 14.2547 28.2469 14.124C27.5002 13.9187 26.7442 13.6573 25.9789 13.34C25.2322 13.004 24.5415 12.584 23.9069 12.08C23.2909 11.576 22.7869 10.96 22.3949 10.232C22.0029 9.504 21.7975 8.65467 21.7789 7.684C21.7602 6.54533 21.9935 5.53733 22.4789 4.66C22.9642 3.764 23.6269 3.01733 24.4669 2.42C25.3069 1.804 26.2589 1.34667 27.3229 1.048C28.4055 0.730665 29.5069 0.571998 30.6269 0.571998ZM60.0232 20.312C60.0418 20.648 60.0885 20.9933 60.1632 21.348C60.2565 21.7027 60.3685 22.02 60.4992 22.3C60.4245 22.3747 60.2285 22.5053 59.9112 22.692C59.5938 22.8787 59.2112 23.0467 58.7632 23.196C58.3152 23.3453 57.8392 23.4013 57.3352 23.364C56.6072 23.308 56.0005 23.0093 55.5152 22.468C55.0485 21.908 54.8152 21.1987 54.8152 20.34C54.7965 20.1533 54.7872 19.9573 54.7872 19.752C54.7872 19.5467 54.7872 19.2853 54.7872 18.968C54.8058 18.1467 54.6378 17.4373 54.2832 16.84C53.9285 16.224 53.4525 15.7573 52.8552 15.44C52.2578 15.104 51.6045 14.936 50.8952 14.936C49.8685 14.936 48.9818 15.244 48.2352 15.86C47.5072 16.476 47.1058 17.372 47.0312 18.548C47.0312 18.716 47.0405 19.0333 47.0592 19.5C47.0965 19.9667 47.1432 20.4333 47.1992 20.9C47.2552 21.3667 47.3112 21.7027 47.3672 21.908C47.1618 22.132 46.8538 22.3653 46.4432 22.608C46.0325 22.832 45.6032 23.0093 45.1552 23.14C44.7072 23.2707 44.3152 23.308 43.9792 23.252C43.4752 23.1587 42.9898 22.8227 42.5232 22.244C42.0565 21.6653 41.8138 20.9467 41.7952 20.088C41.7952 19.92 41.7858 19.4533 41.7672 18.688C41.7672 17.904 41.7578 16.9333 41.7392 15.776C41.7392 14.6187 41.7298 13.3773 41.7112 12.052C41.7112 10.708 41.7018 9.38267 41.6832 8.076C41.6832 6.76933 41.6738 5.57467 41.6552 4.492C41.6552 3.40933 41.6552 2.54133 41.6552 1.888C41.6552 1.23467 41.6552 0.907999 41.6552 0.907999C41.8605 0.870666 42.2152 0.861333 42.7192 0.879999C43.2418 0.898666 43.7925 0.982666 44.3712 1.132C45.0058 1.28133 45.5845 1.53333 46.1072 1.888C46.6298 2.24267 46.9285 2.756 47.0032 3.428C47.0405 3.74533 47.0685 4.09067 47.0872 4.464C47.1058 4.83733 47.1152 5.164 47.1152 5.444C47.1152 5.70533 47.1152 5.836 47.1152 5.836C47.1152 6.564 47.2832 7.24533 47.6192 7.88C47.9552 8.496 48.4125 8.98133 48.9912 9.336C49.5885 9.69067 50.2325 9.85867 50.9232 9.84C51.9125 9.80267 52.6778 9.48533 53.2192 8.888C53.7605 8.29067 54.1618 7.42267 54.4232 6.284C54.4978 5.96667 54.5538 5.51867 54.5912 4.94C54.6285 4.34267 54.6472 3.736 54.6472 3.12C54.6658 2.504 54.6752 1.98133 54.6752 1.552C54.6752 1.12267 54.6752 0.907999 54.6752 0.907999C54.8805 0.870666 55.2165 0.861333 55.6832 0.879999C56.1498 0.898666 56.6445 0.963999 57.1672 1.076C57.8205 1.20667 58.4365 1.45867 59.0152 1.832C59.6125 2.18667 59.9485 2.71867 60.0232 3.428C60.0605 3.78267 60.0885 4.352 60.1072 5.136C60.1258 5.92 60.1258 6.83467 60.1072 7.88C60.1072 8.90667 60.0978 10.008 60.0792 11.184C60.0605 12.3413 60.0418 13.4987 60.0232 14.656C60.0045 15.7947 59.9952 16.8587 59.9952 17.848C59.9952 18.8187 60.0045 19.64 60.0232 20.312ZM65.2012 23.252C64.3985 23.1027 63.8292 22.5613 63.4932 21.628C63.1759 20.6947 63.0172 19.5373 63.0172 18.156C63.0172 17.988 63.0079 17.568 62.9892 16.896C62.9892 16.224 62.9799 15.3933 62.9612 14.404C62.9612 13.396 62.9519 12.3133 62.9332 11.156C62.9332 9.99867 62.9239 8.84133 62.9052 7.684C62.8865 6.52667 62.8679 5.46267 62.8492 4.492C62.8305 3.50267 62.8119 2.69067 62.7932 2.056C62.7745 1.42133 62.7559 1.03867 62.7372 0.907999C63.0172 0.851999 63.4465 0.842665 64.0252 0.879999C64.6225 0.898666 65.2385 0.991999 65.8732 1.16C66.5265 1.30933 67.0959 1.57067 67.5812 1.944C68.0665 2.29867 68.3465 2.79333 68.4212 3.428C68.4585 3.72667 68.4865 4.24 68.5052 4.968C68.5239 5.67733 68.5332 6.52667 68.5332 7.516C68.5519 8.48667 68.5612 9.52267 68.5612 10.624C68.5612 11.7253 68.5612 12.8173 68.5612 13.9C68.5612 14.964 68.5612 15.9533 68.5612 16.868C68.5612 17.764 68.5612 18.52 68.5612 19.136C68.5799 19.7333 68.5985 20.0973 68.6172 20.228C68.6545 20.62 68.7292 20.9093 68.8412 21.096C68.9532 21.264 69.0745 21.4787 69.2052 21.74C68.7385 22.244 68.1599 22.6547 67.4692 22.972C66.7785 23.2893 66.0225 23.3827 65.2012 23.252Z" fill="#353535"/>
<path d="M87.5045 18.268C88.3258 19.0333 89.0352 19.528 89.6325 19.752C89.5765 19.976 89.4552 20.2747 89.2685 20.648C89.1005 21.0213 88.8765 21.3947 88.5965 21.768C88.3352 22.1413 88.0272 22.4587 87.6725 22.72C87.3178 22.9813 86.9258 23.1213 86.4965 23.14C85.9738 23.1587 85.4978 23.1027 85.0685 22.972C84.6578 22.8227 84.2192 22.58 83.7525 22.244C83.3978 21.964 82.9778 21.6093 82.4925 21.18C82.0258 20.732 81.5685 20.2747 81.1205 19.808C80.6725 19.3413 80.3178 18.9493 80.0565 18.632C79.6832 18.1467 79.2818 17.736 78.8525 17.4C78.4232 17.064 77.9472 16.9333 77.4245 17.008C77.1258 17.0267 76.9392 17.1107 76.8645 17.26C76.8085 17.3907 76.7525 17.6613 76.6965 18.072C76.6592 18.352 76.6498 18.688 76.6685 19.08C76.6872 19.4533 76.7152 19.808 76.7525 20.144C76.8085 20.48 76.8365 20.7227 76.8365 20.872C76.8365 21.208 76.9018 21.4693 77.0325 21.656C77.1632 21.824 77.2938 21.9827 77.4245 22.132C77.1072 22.3747 76.6125 22.636 75.9405 22.916C75.2685 23.196 74.5218 23.336 73.7005 23.336C73.1592 23.336 72.7298 23.1213 72.4125 22.692C72.1138 22.2627 71.8992 21.74 71.7685 21.124C71.6378 20.508 71.5632 19.9107 71.5445 19.332C71.5445 19.164 71.5352 18.7067 71.5165 17.96C71.5165 17.2133 71.5072 16.2893 71.4885 15.188C71.4885 14.068 71.4885 12.8733 71.4885 11.604C71.4885 10.316 71.4792 9.04667 71.4605 7.796C71.4605 6.52667 71.4512 5.37867 71.4325 4.352C71.4325 3.30667 71.4325 2.476 71.4325 1.86C71.4325 1.22533 71.4325 0.907999 71.4325 0.907999C71.6378 0.870666 71.9925 0.861333 72.4965 0.879999C73.0192 0.898666 73.5605 0.982666 74.1205 1.132C74.7552 1.28133 75.3338 1.53333 75.8565 1.888C76.3978 2.24267 76.7058 2.756 76.7805 3.428C76.8178 3.85733 76.8365 4.212 76.8365 4.492C76.8552 4.772 76.8645 5.06133 76.8645 5.36C76.8645 6.34933 77.1072 6.97467 77.5925 7.236C78.1338 7.516 78.8712 7.32933 79.8045 6.676C79.9538 6.564 80.2152 6.34933 80.5885 6.032C80.9618 5.696 81.3912 5.304 81.8765 4.856C82.3618 4.408 82.8658 3.94133 83.3885 3.456C83.9112 2.97067 84.3872 2.52267 84.8165 2.112C85.2645 1.68267 85.6285 1.33733 85.9085 1.076C86.1885 0.814665 86.3285 0.683999 86.3285 0.683999C86.4965 0.814666 86.7298 1.12267 87.0285 1.608C87.3458 2.09333 87.6258 2.63467 87.8685 3.232C88.1112 3.82933 88.2605 4.44533 88.3165 5.08C88.3912 5.696 88.2698 6.20933 87.9525 6.62C87.8218 6.788 87.6072 7.012 87.3085 7.292C87.0285 7.572 86.7112 7.87067 86.3565 8.188C86.0205 8.48667 85.6938 8.776 85.3765 9.056C85.0592 9.31733 84.8165 9.52267 84.6485 9.672C84.2938 9.97067 83.9952 10.344 83.7525 10.792C83.5285 11.2213 83.3885 11.6693 83.3325 12.136C83.2765 12.6027 83.2952 13.0693 83.3885 13.536C83.4818 14.0027 83.6872 14.432 84.0045 14.824C84.2285 15.0853 84.5645 15.44 85.0125 15.888C85.4605 16.3173 85.9178 16.756 86.3845 17.204C86.8512 17.6333 87.2245 17.988 87.5045 18.268ZM108.266 3.428C108.303 3.85733 108.35 4.55733 108.406 5.528C108.48 6.48 108.536 7.58133 108.574 8.832C108.611 10.0827 108.62 11.3707 108.602 12.696C108.602 14.0027 108.555 15.244 108.462 16.42C108.387 17.596 108.247 18.576 108.042 19.36C107.706 20.648 106.772 21.6373 105.242 22.328C103.711 23.0187 101.788 23.364 99.4736 23.364C97.9243 23.364 96.6083 23.0747 95.5256 22.496C94.443 21.9173 93.603 21.124 93.0056 20.116C92.427 19.0893 92.1003 17.9133 92.0256 16.588C91.9883 15.9347 91.9603 15.104 91.9416 14.096C91.923 13.0693 91.9043 11.968 91.8856 10.792C91.8856 9.59733 91.8856 8.42133 91.8856 7.264C91.8856 6.10667 91.8856 5.052 91.8856 4.1C91.9043 3.12933 91.9136 2.35467 91.9136 1.776C91.9136 1.19733 91.9136 0.907999 91.9136 0.907999C92.119 0.870666 92.4736 0.861333 92.9776 0.879999C93.5003 0.898666 94.0416 0.982666 94.6016 1.132C95.2363 1.28133 95.815 1.53333 96.3376 1.888C96.879 2.24267 97.187 2.756 97.2616 3.428C97.3176 3.988 97.3176 4.828 97.2616 5.948C97.2243 7.04933 97.187 8.31867 97.1496 9.756C97.131 11.1747 97.1683 12.6493 97.2616 14.18C97.2803 14.4973 97.2896 14.8613 97.2896 15.272C97.2896 15.6827 97.3456 16.084 97.4576 16.476C97.5883 16.868 97.8403 17.1947 98.2136 17.456C98.6056 17.7173 99.203 17.848 100.006 17.848C100.808 17.848 101.415 17.736 101.826 17.512C102.255 17.288 102.563 16.98 102.75 16.588C102.936 16.196 103.048 15.7387 103.086 15.216C103.142 14.6933 103.188 14.1333 103.226 13.536C103.263 13.144 103.272 12.5653 103.254 11.8C103.254 11.0347 103.244 10.176 103.226 9.224C103.207 8.272 103.179 7.31067 103.142 6.34C103.104 5.36933 103.067 4.47333 103.03 3.652C102.992 2.83067 102.964 2.168 102.946 1.664C102.927 1.16 102.918 0.907999 102.918 0.907999C103.123 0.870666 103.478 0.861333 103.982 0.879999C104.504 0.898666 105.055 0.982666 105.634 1.132C106.268 1.28133 106.847 1.54267 107.37 1.916C107.892 2.27067 108.191 2.77467 108.266 3.428ZM126.263 14.124C126.188 14.1427 126.076 14.2453 125.927 14.432C125.796 14.6187 125.703 14.8147 125.647 15.02C125.554 15.3187 125.582 15.5613 125.731 15.748C126.123 16.2147 126.627 16.7653 127.243 17.4C127.859 18.016 128.475 18.604 129.091 19.164C129.726 19.724 130.267 20.1533 130.715 20.452C130.379 21.348 129.847 22.0667 129.119 22.608C128.41 23.1307 127.616 23.3827 126.739 23.364C125.862 23.3453 125.003 22.9533 124.163 22.188C124.051 22.076 123.836 21.8333 123.519 21.46C123.202 21.068 122.838 20.6107 122.427 20.088C122.016 19.5653 121.606 19.0427 121.195 18.52C120.784 17.9973 120.43 17.54 120.131 17.148C119.832 16.756 119.646 16.5133 119.571 16.42C119.216 15.9533 118.88 15.8507 118.563 16.112C118.246 16.3733 118.05 16.9147 117.975 17.736C117.938 18.2213 117.938 18.7813 117.975 19.416C118.031 20.032 118.106 20.5827 118.199 21.068C118.311 21.5533 118.423 21.8427 118.535 21.936C118.143 22.2347 117.658 22.5147 117.079 22.776C116.5 23.0373 115.838 23.196 115.091 23.252C114.811 23.2707 114.484 23.196 114.111 23.028C113.738 22.86 113.411 22.5893 113.131 22.216C112.87 21.824 112.73 21.3387 112.711 20.76C112.711 20.6107 112.702 20.2187 112.683 19.584C112.683 18.9493 112.674 18.1747 112.655 17.26C112.655 16.3267 112.655 15.3653 112.655 14.376C112.655 13.3867 112.646 12.4533 112.627 11.576C112.627 10.6987 112.627 9.98933 112.627 9.448C112.627 8.90667 112.627 8.636 112.627 8.636C112.627 7.53467 112.599 6.62 112.543 5.892C112.487 5.14533 112.263 4.576 111.871 4.184C111.516 3.82933 111.246 3.316 111.059 2.644C110.891 1.972 110.816 1.33733 110.835 0.74C110.91 0.758666 111.134 0.786666 111.507 0.823998C111.88 0.842666 112.244 0.870666 112.599 0.907999C112.842 0.907999 113.187 0.907999 113.635 0.907999C114.102 0.889333 114.596 0.870666 115.119 0.852C115.642 0.833332 116.127 0.823998 116.575 0.823998C117.023 0.805332 117.359 0.786666 117.583 0.767999C117.751 0.767999 118.059 0.767999 118.507 0.767999C118.974 0.749333 119.515 0.74 120.131 0.74C120.747 0.74 121.372 0.749333 122.007 0.767999C122.642 0.767999 123.23 0.786666 123.771 0.823998C124.312 0.861332 124.732 0.907999 125.031 0.963998C126.263 1.188 127.215 1.59867 127.887 2.196C128.559 2.79333 129.035 3.512 129.315 4.352C129.614 5.192 129.791 6.10667 129.847 7.096C129.884 7.936 129.791 8.81333 129.567 9.728C129.343 10.6427 128.96 11.492 128.419 12.276C127.878 13.06 127.159 13.676 126.263 14.124ZM118.031 8.104C118.031 8.70133 118.171 9.14933 118.451 9.448C118.731 9.728 118.992 9.896 119.235 9.952C119.571 10.0267 120 10.036 120.523 9.98C121.046 9.90533 121.568 9.77467 122.091 9.588C122.614 9.38267 123.052 9.12133 123.407 8.804C123.78 8.48667 123.967 8.12267 123.967 7.712C123.967 7.17067 123.743 6.76 123.295 6.48C122.847 6.18133 122.278 5.99467 121.587 5.92C120.915 5.84533 120.243 5.864 119.571 5.976C119.048 6.05067 118.656 6.284 118.395 6.676C118.134 7.068 118.012 7.544 118.031 8.104Z" fill="#F8BC17"/>
</svg>
