<?xml version="1.0" encoding="utf-8"?>
<!-- Generator: Adobe Illustrator 23.0.1, SVG Export Plug-In . SVG Version: 6.00 Build 0)  -->
<svg version="1.1" id="Capa_1" xmlns="http://www.w3.org/2000/svg" xmlns:xlink="http://www.w3.org/1999/xlink" x="0px" y="0px"
	 viewBox="0 0 150 150" style="enable-background:new 0 0 150 150;" xml:space="preserve">
<style type="text/css">
	.st0{fill:#4280EF;}
	.st1{fill:#34A353;}
	.st2{fill:#F6B704;}
	.st3{fill:#E54335;}
</style>
<g>
	<path class="st0" d="M146.1,77.5c0-4.9-0.5-10-1.3-14.7H76.2v28h39.3c-1.6,9-6.8,17-14.6,22l23.5,18.2
		C138.2,118.3,146.1,99.6,146.1,77.5L146.1,77.5z"/>
	<path class="st1" d="M76.2,148.5c19.7,0,36.1-6.5,48.2-17.6l-23.5-18.1c-6.5,4.4-14.9,7-24.7,7c-19,0-35-12.8-40.9-30l-24.1,18.5
		C23.6,133,48.6,148.5,76.2,148.5z"/>
	<path class="st2" d="M35.3,89.7c-3-9-3-18.9,0-27.9L11.2,43.1C0.9,63.7,0.9,88,11.2,108.4L35.3,89.7z"/>
	<path class="st3" d="M76.2,31.9c10.3-0.2,20.4,3.8,27.9,10.9l20.8-20.9C111.7,9.5,94.3,2.9,76.2,3.1c-27.6,0-52.6,15.5-65,40.1
		l24.1,18.7C41.2,44.6,57.2,31.9,76.2,31.9z"/>
</g>
</svg>
